<svg viewBox="0 0 72 72" xmlns="http://www.w3.org/2000/svg"><path d="m68.88 18-8.23-14.22-8.22 14.22h4.23v9.89a15.85 15.85 0 0 1 -15.84 15.83h-.82v-25.72h4.23l-8.23-14.22-8.23 14.22h4.23v25.72h-.82a15.85 15.85 0 0 1 -15.83-15.83v-9.89h4.23l-8.23-14.22-8.23 14.22h4.23v9.89a23.86 23.86 0 0 0 23.83 23.83h.82v16.5h8v-16.5h.82a23.86 23.86 0 0 0 23.83-23.83v-9.89z" fill="#ed1c24"/><path d="m31.22 16h2.9a1.88 1.88 0 0 1 1.88 1.91v25.09a2.7 2.7 0 0 1 -2.7 2.7h-2.08z" fill="#8b1518"/><path d="m40.54 48h-9.08c-12.38 0-22.46-10.73-22.46-23.88v3.77c0 13.06 10 23.69 22.22 23.83v15.89h4.78v-13.52a2.36 2.36 0 0 1 2.36-2.36h2.18c12.38-.01 22.46-10.73 22.46-23.84v-3.77c0 13.15-10.08 23.88-22.46 23.88z" fill="#8b1518"/><path d="m68.88 18-8.23-14.22-8.22 14.22h4.23v9.89a15.85 15.85 0 0 1 -15.84 15.83h-.82v-25.72h4.23l-8.23-14.22-8.23 14.22h4.23v25.72h-.82a15.85 15.85 0 0 1 -15.83-15.83v-9.89h4.23l-8.23-14.22-8.23 14.22h4.23v9.89a23.86 23.86 0 0 0 23.83 23.83h.82v16.5h8v-16.5h.82a23.86 23.86 0 0 0 23.83-23.83v-9.89z" fill="none" stroke="#231f20" stroke-linecap="round" stroke-linejoin="round" stroke-width="4"/></svg>