<?xml version="1.0" encoding="utf-8"?>
<!-- Generator: Adobe Illustrator 19.2.1, SVG Export Plug-In . SVG Version: 6.00 Build 0)  -->
<svg version="1.1" id="Layer_1" xmlns="http://www.w3.org/2000/svg" xmlns:xlink="http://www.w3.org/1999/xlink" x="0px" y="0px"
	 viewBox="0 0 72 72" style="enable-background:new 0 0 72 72;" xml:space="preserve">
<style type="text/css">
	.st0{fill:#FFFFFF;}
	.st1{fill:none;}
	.st2{fill:#275D6C;}
	.st3{fill:#FFC800;}
</style>
<path d="M31.2,17.5c2.1,0,4.3,0.3,6.4,0.8c5.7,1.7,10.6,5.2,14,10.1c1.4,2.4,2.6,6.2,2.4,7.4s-2.5,1.8-3.9,2.4s-4.5,3.5-4.1,7.2
	s2.2,7.4,1.9,9.7s-1.3,6.5-7.7,8.5c-1.4,0.5-2.8,0.7-4.3,0.8c-3.4,0-5.2-1.7-7.1-3c-1.7-1-3.6-1.4-5.6-1.3c-1,0-1.9,0.1-2.9,0.4
	c-1.4,0.5-1.6,0.6-1.7,0.7c0,0.4-0.3,0.7-0.6,0.7c-0.7,0.3-3.6,1.5-5,1.5h-0.3c-1.2-0.2-1.1-0.9-1.2-1.9c-0.2-0.8-0.5-1.6-0.9-2.3
	c-0.2-0.2-0.2-0.6,0-0.7c0,0,0.1-0.1,0.1-0.1c-2-3.7-3.6-7.6-4.8-11.6c-1.8-8,0.8-16.3,6.9-21.8C17.7,20,24.3,17.4,31.2,17.5
	 M33.6,53.6c1.6,0,2.9-1.3,2.9-3s-1.3-2.9-3-2.9c-1.6,0-2.9,1.3-2.9,3c0,0.4,0.1,0.7,0.2,1.1C31.3,52.9,32.3,53.6,33.6,53.6
	 M31.2,16.8c-7,0-13.8,2.7-18.9,7.5c-7.7,7.2-8.7,16.3-7.1,22.5c1.2,3.9,2.7,7.7,4.7,11.2c-0.2,0.4-0.2,0.9,0.1,1.2l0.1,0.1
	c0.3,0.6,0.6,1.3,0.8,2c0,0.1,0,0.2,0.1,0.4c0,1.1,0.7,2,1.8,2.1c0.1,0,0.3,0,0.4,0c1.7-0.2,3.4-0.7,5-1.5l0.2-0.1
	c0.5-0.1,0.8-0.5,1-0.9l0.2-0.1l1.1-0.4c0.9-0.2,1.7-0.3,2.6-0.3c1.8-0.1,3.6,0.3,5.2,1.2l0.7,0.5c1.9,1.6,4.3,2.5,6.8,2.6
	c1.5,0,3.1-0.3,4.5-0.8c6.4-2,7.8-6.2,8.2-9.1c0.1-1.8-0.2-3.6-0.8-5.2c-0.5-1.5-0.8-3.1-1-4.6c-0.4-3.3,2.5-6,3.7-6.5l0.9-0.4
	c1.5-0.6,3.2-1.2,3.4-2.5s-1.2-5.5-2.5-7.9c-3.5-5-8.7-8.7-14.6-10.3C35.5,17,33.4,16.8,31.2,16.8z M33.6,52.8c-1.2,0-2.2-1-2.2-2.2
	s1-2.2,2.2-2.2c1.2,0,2.2,1,2.2,2.2c0,0.9-0.6,1.7-1.4,2C34.1,52.8,33.8,52.9,33.6,52.8z"/>
<path d="M35.9,65.2c-2.5-0.1-4.9-1-6.9-2.6L28.3,62c-1.5-0.9-3.3-1.3-5.1-1.3c-0.9,0-1.7,0.1-2.6,0.3l-1.1,0.4l-0.2,0.1
	c-0.2,0.4-0.6,0.8-1,0.9l-0.2,0.1c-1.6,0.7-3.3,1.2-5,1.5c-0.2,0-0.3,0-0.5,0c-1.2-0.1-2-1.1-2-2.3c0-0.1,0-0.2-0.1-0.4
	c-0.1-0.7-0.4-1.4-0.7-2l-0.1-0.1c-0.2-0.4-0.3-0.9-0.1-1.3c-1.9-3.6-3.5-7.3-4.6-11.2c-1.6-6.2-0.6-15.3,7.1-22.6
	c5.1-4.9,11.9-7.6,19-7.5c2.2,0,4.4,0.3,6.6,0.8c5.9,1.7,11.1,5.4,14.5,10.5c1.4,2.4,2.8,6.5,2.5,7.9c-0.3,1.4-2,2-3.5,2.6l-0.9,0.4
	c-1.2,0.5-4,3.2-3.6,6.4c0.2,1.6,0.5,3.1,1,4.6c0.6,1.7,0.9,3.5,0.8,5.3c-0.4,3-1.8,7.1-8.3,9.2C38.9,64.9,37.4,65.1,35.9,65.2z
	 M23.2,60.5c1.9-0.1,3.7,0.4,5.3,1.3l0.7,0.5c1.9,1.6,4.2,2.5,6.7,2.5c1.5,0,3-0.3,4.5-0.8c6.4-2,7.7-6.1,8.1-9
	c0.1-1.8-0.2-3.5-0.8-5.2c-0.5-1.5-0.8-3.1-1-4.7c-0.4-3.4,2.5-6.1,3.7-6.7l0.9-0.4c1.5-0.6,3.1-1.2,3.3-2.4
	c0.3-1.4-1.2-5.4-2.5-7.8c-3.5-5-8.6-8.7-14.5-10.4c-2.1-0.5-4.3-0.8-6.5-0.8c-7,0-13.7,2.7-18.8,7.5c-7.6,7.2-8.6,16.2-7,22.3
	C6.5,50.6,8,54.4,10,57.9v0.1c-0.2,0.4-0.1,0.8,0.1,1.1l0.1,0.1c0.4,0.7,0.6,1.4,0.8,2.1c0,0.1,0,0.2,0.1,0.4c0,1,0.7,1.9,1.6,2
	c0.1,0,0.3,0,0.4,0c1.7-0.2,3.4-0.7,4.9-1.4l0.2-0.1c0.4-0.1,0.7-0.4,0.9-0.8v-0.1l0.3-0.1l1.1-0.4C21.3,60.6,22.2,60.5,23.2,60.5z
	 M35.9,64.4c-2.4-0.1-4.6-0.9-6.4-2.5l-0.8-0.5c-1.7-0.9-3.6-1.4-5.6-1.3c-1,0-1.9,0.1-2.8,0.3l-1.2,0.4l-0.5,0.2
	c0,0.4-0.3,0.7-0.7,0.8l-0.2,0.1c-1.5,0.7-3.1,1.2-4.8,1.4c-0.1,0-0.2,0-0.3,0c-0.8-0.1-1.4-0.8-1.3-1.7c0-0.1,0-0.2-0.1-0.4
	c-0.2-0.8-0.4-1.5-0.8-2.2V59c-0.2-0.3-0.2-0.7,0.1-0.9c0,0,0,0,0,0c-2-3.7-3.6-7.5-4.8-11.5c-1.6-6-0.6-14.9,6.9-21.9
	c6.6-6.3,16-8.8,24.8-6.6c6.8,1.7,12.6,7.5,14.2,10.1c1.4,2.4,2.7,6.3,2.4,7.4c-0.2,1-1.7,1.6-3,2.1l-0.9,0.3
	c-1.3,0.6-4.4,3.5-4,7.1c0.2,1.6,0.5,3.2,1,4.7c0.6,1.6,0.9,3.3,0.8,5c-0.4,2.8-1.7,6.7-7.8,8.6C38.8,64.1,37.3,64.4,35.9,64.4
	L35.9,64.4z M23.2,59.8c2-0.1,4,0.4,5.7,1.4l0.7,0.5c1.7,1.2,3.4,2.4,6.3,2.4c1.5,0,2.9-0.3,4.3-0.7c6-1.9,7.2-5.7,7.6-8.4
	c0-1.7-0.2-3.3-0.8-4.9c-0.5-1.6-0.8-3.2-1.1-4.8c-0.4-3.8,2.8-6.8,4.2-7.4l0.9-0.4c1.3-0.5,2.7-1.1,2.9-1.9c0.2-1.1-1-4.9-2.4-7.3
	c-1.5-2.7-7.2-8.3-14-10c-8.8-2.2-18,0.3-24.6,6.5C5.5,31.9,4.5,40.6,6,46.5c1.2,4,2.8,7.8,4.8,11.5l0.1,0.1l-0.1,0.1
	c-0.2,0.2-0.3,0.3-0.1,0.7V59c0.4,0.7,0.7,1.5,0.8,2.3c0,0.1,0,0.3,0.1,0.4c0.1,0.8,0.2,1.2,1.1,1.4h0.3c1.6-0.3,3.2-0.7,4.7-1.4
	l0.2-0.1c0.5-0.2,0.5-0.4,0.5-0.5c0-0.1,0-0.2,0.1-0.2c0.2-0.1,0.4-0.2,0.6-0.2l1.1-0.4C21.1,59.9,22.2,59.8,23.2,59.8z M33.6,53.7
	c-1.7,0-3-1.4-3-3c0-1.7,1.4-3,3-3c1.7,0,3,1.4,3,3c0,1.2-0.8,2.3-1.9,2.8C34.3,53.6,33.9,53.7,33.6,53.7L33.6,53.7z M33.6,47.9
	c-1.5,0-2.8,1.2-2.8,2.8s1.2,2.8,2.8,2.8c1.5,0,2.8-1.2,2.8-2.8c0-0.3-0.1-0.7-0.2-1C35.7,48.6,34.7,47.9,33.6,47.9L33.6,47.9z
	 M33.6,53c-1.3,0-2.3-1-2.3-2.3s1-2.3,2.3-2.3s2.3,1,2.3,2.3c0,1-0.6,1.8-1.5,2.2C34.2,52.9,33.8,53,33.6,53L33.6,53z M33.6,48.6
	c-0.3,0-0.5,0.1-0.8,0.2c-1.1,0.4-1.6,1.6-1.1,2.7c0.4,1.1,1.6,1.6,2.7,1.1c1.1-0.4,1.6-1.6,1.1-2.7C35.2,49.1,34.4,48.6,33.6,48.6
	L33.6,48.6z"/>
<path className="st0" d="M40.2,60.4c-0.7,0-1.3-0.6-1.3-1.3c0-0.7,0.6-1.3,1.3-1.3c0.7,0,1.3,0.6,1.3,1.3c0,0.5-0.3,1-0.8,1.2
	C40.5,60.3,40.3,60.4,40.2,60.4z"/>
<path d="M40.2,58.3c0.5,0,0.8,0.4,0.8,0.8c0,0.5-0.4,0.8-0.8,0.8c-0.5,0-0.8-0.4-0.8-0.8c0-0.3,0.2-0.6,0.5-0.8
	C40,58.3,40.1,58.3,40.2,58.3 M40.2,57.4c-0.9,0-1.7,0.8-1.7,1.7c0,0.9,0.8,1.7,1.7,1.7c0.9,0,1.7-0.8,1.7-1.7c0-0.2,0-0.4-0.1-0.6
	C41.5,57.8,40.9,57.4,40.2,57.4z"/>
<circle cx="40.2" cy="59.1" r="0.6"/>
<ellipse transform="matrix(0.9272 -0.3746 0.3746 0.9272 -19.2465 19.3452)" className="st0" cx="40.1" cy="59.2" rx="0.4" ry="0.3"/>
<path className="st0" d="M41.2,58.8C41.1,58.8,41.1,58.8,41.2,58.8C41.1,58.8,41.1,58.8,41.2,58.8c-0.3-0.5-0.9-0.7-1.4-0.5
	c-0.5,0.2-0.7,0.8-0.5,1.3c0,0,0,0.1,0,0.1c0,0-0.1,0-0.1,0l0,0c-0.3-0.6,0-1.3,0.5-1.6c0.6-0.3,1.3,0,1.6,0.5
	C41.2,58.6,41.2,58.6,41.2,58.8C41.2,58.7,41.2,58.7,41.2,58.8z M30.4,60.4c-0.7,0-1.3-0.6-1.3-1.3s0.6-1.3,1.3-1.3
	c0.7,0,1.3,0.6,1.3,1.3c0,0.5-0.3,1-0.8,1.2C30.7,60.3,30.6,60.4,30.4,60.4z"/>
<path d="M30.4,58.3c0.5,0,0.8,0.4,0.8,0.8c0,0.5-0.4,0.8-0.8,0.8c-0.5,0-0.8-0.4-0.8-0.8c0-0.3,0.2-0.6,0.5-0.8
	C30.2,58.3,30.3,58.3,30.4,58.3 M30.4,57.4c-0.9,0-1.7,0.8-1.7,1.7c0,0.9,0.8,1.7,1.7,1.7c0.9,0,1.7-0.8,1.7-1.7
	c0-0.2,0-0.4-0.1-0.6C31.8,57.8,31.1,57.4,30.4,57.4z"/>
<circle cx="30.4" cy="59.1" r="0.6"/>
<ellipse transform="matrix(0.9272 -0.3746 0.3746 0.9272 -19.9559 15.6975)" className="st0" cx="30.4" cy="59.2" rx="0.4" ry="0.3"/>
<path className="st0" d="M31.5,58.8C31.4,58.8,31.4,58.8,31.5,58.8c-0.1,0-0.1,0-0.1,0c-0.2-0.5-0.8-0.7-1.3-0.5
	c-0.5,0.2-0.7,0.8-0.5,1.3c0,0,0,0.1,0,0.1c0,0-0.1,0-0.1,0l0,0c-0.3-0.6,0-1.3,0.5-1.6c0.6-0.3,1.3,0,1.6,0.5
	C31.4,58.6,31.5,58.6,31.5,58.8C31.5,58.7,31.5,58.7,31.5,58.8z M13.2,63.6h-0.4c-0.9,0-1.7-0.7-1.7-1.6c0,0,0-0.1,0-0.1
	c-0.1-0.7-0.3-1.4-0.6-2.1l-0.1-0.2c-0.4-0.4-0.5-1.1-0.1-1.6c0.8-0.5,1.8-0.8,2.8-1h0.2c0.4,0.1,0.7,0.2,1,0.5l0.1,0.1
	c1,0.7,2,1.4,3.1,1.9c0.9,0.3,1.8,1,1.5,1.8c-0.3,0.8-1,1-2.5,1.4c-0.5,0.2-0.8,0.3-1.1,0.4C14.6,63.4,13.9,63.6,13.2,63.6
	L13.2,63.6z"/>
<path d="M13.2,57.3c0.4,0.1,0.7,0.3,0.9,0.5c1,0.8,2.1,1.4,3.2,2c0.7,0.2,1.4,0.8,1.3,1.3s-0.9,0.8-2.3,1.2c-1,0.4-2,0.7-3.1,0.9
	h-0.4c-0.7,0-1.3-0.6-1.3-1.3c0-0.1,0-0.1,0-0.2c-0.1-0.8-0.3-1.5-0.7-2.2c-0.3-0.6-0.6-0.9-0.3-1.3C11.3,57.8,12.2,57.5,13.2,57.3
	L13.2,57.3 M13.2,56.6h-0.3c-1.1,0.1-2.1,0.5-3,1.1c-0.5,0.6-0.4,1.5,0.1,2.1l0.1,0.2c0.3,0.6,0.5,1.2,0.6,1.9c0,1.2,0.9,2.1,2,2.2
	c0,0,0,0,0,0h0.4c0.8,0,1.6-0.2,2.3-0.5c0.3-0.1,0.6-0.2,1-0.3h0.1c1.5-0.5,2.4-0.8,2.7-1.7c0.3-0.9-0.4-1.9-1.8-2.3
	c-1.1-0.5-2.1-1.1-3-1.8l-0.1-0.1C14.1,56.8,13.6,56.6,13.2,56.6L13.2,56.6z"/>
<path className="st1" d="M32.5,48c-1.2,0.5-1.9,1.7-1.8,3l5.4-1.8C35.3,48,33.8,47.5,32.5,48z"/>
<path className="st1" d="M30.8,51.8c0.7,1.5,2.4,2.1,3.9,1.4c1.3-0.6,2-2.1,1.5-3.5c-0.1-0.2-0.1-0.3-0.2-0.4L30.6,51
	C30.7,51.2,30.7,51.5,30.8,51.8z"/>
<path d="M48.2,53.3c0.2,0.1,0.4,0.2,0.6,0.2l-0.5-1.9l0.8,0.4c-0.5-1.1-1-2.1-1.7-3.1c-0.2-0.2-0.4-0.4-0.7-0.4c0,0,0-0.1,0-0.1
	c-0.1,0-0.3-0.5-1-1s-1.8-2.3-2-2.2c-0.5,0.8-0.9,1.7-1.2,2.6c0,0.2,1.7,0.7,2.1,1.1c0.8,0.4,1.1,1.3,0.7,2.1
	c-0.2,0.9-1.1,1.4-2,1.2c0,0-0.1,0-0.1,0c-0.9-0.2-2.2-1.2-2.5-1.2s-1,1.5-1,1.5l7.8,1C47.5,53.5,48,53.5,48.2,53.3z M48.4,55.9
	c-0.1,0-0.3,0-0.4,0c-0.3-0.5-9.1-1.2-9.1-1l0.6,2.8c0.8-0.2,1.6,0.1,2,0.8c0.2,0.3,0.2,0.7,0.1,1.1c-0.5,0.5-0.8,0.7-0.8,0.8
	c0,0.1,0,0.1,0,0.2c-0.1,0.3-0.1,0.5,0,0.8c0,0.4,0.1,0.8,0.1,1.2c0.1,0.8,0.2,1.7,0.1,2.5c1-0.5,1.9-1.1,2.7-1.8l0.1,0.9
	c1.1-0.7,2-1.6,2.7-2.7l0.2,0.9c0.6-0.9,1.1-1.9,1.5-3l0.3,1c0.3-0.7,0.4-1.4,0.4-2.1C48.7,57.5,48.6,56.7,48.4,55.9z M44.4,7.9
	c-9.7-6.5-28.8,5.4-26.3,5.4s0.7,1-3.4,5.4c-3.2,3.5-4.1,3.4-8.2,10.3s-2.1,14.5-1.3,18S9.7,58,9.7,58c0.9-0.5,1.9-0.8,2.9-1
	c0.9,0.1,1.8,0.6,2.4,1.3c0.6,0.6,2.9,1.4,3.4,1.7s0.2,1.2,0.4,1.3c1.6-0.6,3.2-0.9,4.9-0.9c1.9-0.1,3.8,0.5,5.2,1.7
	c0.3-0.4,0.5-0.9,0.5-1.5c-0.1-0.6-0.6-0.3-0.5-1.6c0-0.7,0.6-1.3,1.4-1.3c0,0,0,0,0,0c0.5-1.5,0.2-3.1-0.7-4.3
	c-1.5-2.1-0.8-6.8,3.3-6.7s4.5,4.5,4.6,4.2c0.3-0.3,0.5-0.7,0.7-1c-0.1-0.2-0.2-0.3-0.2-0.5c0-0.2,0.6-1.2,0.9-2
	c0.1-0.4,0.5-0.7,0.9-0.8l2.2-3.7c0,0-4.2-4.6-4.1-9.6c0.1-3.8,3.8-7,6.3-9.2c1.5-1.1,2.7-1.8,2.7-1.8C49.4,19.8,52.5,13.3,44.4,7.9
	z"/>
<path className="st2" d="M21.4,12.8c0.6-0.4,1.2-0.7,1.8-0.9c1.6-0.7,3.3-1.2,5-1.5c1.2-0.2,2.3-0.3,3.5-0.3c0.6,0,1.3,0,1.9,0.1
	c0.7,0.1,1.3,0.1,2,0.3l1,0.2c0.4,0.1,0.7,0.2,1,0.3c0.7,0.2,1.4,0.4,2,0.7c1.3,0.6,2.5,1.5,3.5,2.6c1,1.1,1.6,2.5,1.9,4
	c0.3,1.4,0.1,2.9-0.5,4.3c-0.1,0.2-0.2,0.3-0.3,0.5l-0.3,0.4c-0.2,0.2-0.5,0.5-0.7,0.7l-1.5,1.2c-0.9,0.7-1.6,1.6-2.3,2.5
	c-0.6,0.8-1.1,1.6-1.4,2.5c-0.3,0.7-0.5,1.4-0.6,2.1l-0.1,0.8v0l0.1-0.8c0.1-0.8,0.2-1.5,0.5-2.2c0.3-0.9,0.8-1.8,1.3-2.6
	c0.6-0.9,1.4-1.8,2.2-2.6l1.3-1.3c0.5-0.4,0.9-0.9,1.2-1.4c0.5-1.2,0.7-2.5,0.4-3.8c-0.3-1.3-0.9-2.5-1.8-3.6c-0.9-1-2-1.9-3.2-2.5
	c-0.6-0.3-1.2-0.5-1.9-0.7c-0.3-0.1-0.7-0.2-1-0.3l-1-0.2C34.6,11,34,11,33.4,10.9c-0.6-0.1-1.2-0.1-1.8-0.1c-1.1,0-2.3,0-3.4,0.1
	c-1.7,0.2-3.4,0.6-5,1.2C22.6,12.3,22,12.5,21.4,12.8z"/>
<path className="st2" d="M30.9,9l0.2-0.1c0.2,0,0.4-0.1,0.7-0.1s0.7-0.1,1.2-0.1c0.5,0,1,0,1.5,0c0.6,0,1.2,0.1,1.8,0.1
	c0.7,0.1,1.3,0.2,2,0.4c0.7,0.2,1.3,0.4,2.1,0.7c0.7,0.3,1.4,0.6,2,1.1c0.6,0.4,1.2,1,1.7,1.5c0.5,0.6,0.9,1.2,1.2,1.8
	c0.3,0.6,0.6,1.2,0.7,1.9c0.2,0.6,0.3,1.2,0.3,1.8c0,0.5,0,1-0.1,1.5c0,0.4-0.1,0.8-0.2,1.1c-0.1,0.2-0.2,0.5-0.2,0.7l-0.1,0.2
	l0.1-0.3c0-0.2,0.1-0.4,0.2-0.7c0.1-0.4,0.1-0.8,0.1-1.1c0-0.2,0-0.5,0-0.7c0-0.3,0-0.5-0.1-0.8c-0.1-0.6-0.2-1.1-0.4-1.7
	c-0.1-0.3-0.2-0.6-0.3-0.9c-0.1-0.3-0.3-0.6-0.4-0.9c-0.3-0.6-0.7-1.2-1.2-1.7c-0.5-0.5-1-1-1.6-1.4c-0.6-0.4-1.2-0.7-1.8-1
	c-0.6-0.2-1.3-0.5-2-0.7c-0.7-0.2-1.3-0.4-1.9-0.5s-1.2-0.3-1.7-0.3C33.7,9,32.8,9,31.9,9C31.3,9,30.9,9,30.9,9z"/>
<path className="st2" d="M32.4,8.1h0.3c0.2,0,0.4-0.1,0.7-0.1s0.7-0.1,1.2-0.1c0.5,0,1,0,1.5,0c0.6,0,1.2,0.1,1.8,0.2
	c0.6,0.1,1.3,0.2,2,0.4s1.3,0.4,2,0.7c0.7,0.3,1.4,0.6,2,1.1c0.6,0.4,1.2,0.9,1.7,1.5c0.5,0.6,0.9,1.2,1.2,1.8
	c0.3,0.6,0.6,1.2,0.8,1.9c0.2,0.6,0.3,1.2,0.3,1.8c0.1,0.5,0.1,1,0,1.5c-0.1,0.4-0.2,0.8-0.3,1.2c-0.1,0.2-0.1,0.5-0.2,0.7l-0.1,0.2
	l0.1-0.3c0-0.2,0.1-0.4,0.2-0.7c0.1-0.4,0.1-0.8,0.1-1.1c0-0.5,0-1-0.1-1.5c-0.1-0.6-0.2-1.1-0.4-1.7c-0.1-0.3-0.2-0.6-0.3-0.9
	c-0.1-0.3-0.3-0.6-0.4-0.9C46,13,45.6,12.5,45.2,12c-0.5-0.5-1-1-1.6-1.4c-0.6-0.4-1.2-0.7-1.9-1c-0.7-0.2-1.3-0.5-2-0.7
	c-0.7-0.2-1.3-0.4-1.9-0.4s-1.2-0.2-1.7-0.2c-0.9-0.1-1.8-0.1-2.6-0.1C32.8,8,32.4,8.1,32.4,8.1z"/>
<path className="st2" d="M33.7,7.2c0,0,0.4-0.1,1-0.1c0.3,0,0.7-0.1,1.2-0.1c0.5,0,1,0,1.5,0c0.6,0,1.2,0.1,1.8,0.2
	c0.6,0.1,1.3,0.2,2,0.4s1.3,0.4,2,0.7c1.4,0.6,2.6,1.4,3.6,2.6c0.5,0.5,0.9,1.1,1.2,1.8c0.3,0.6,0.6,1.2,0.8,1.9
	c0.2,0.6,0.3,1.2,0.3,1.8c0.1,0.5,0.1,1,0,1.5c0,0.4-0.1,0.8-0.2,1.1c-0.1,0.3-0.2,0.6-0.2,0.7l-0.1,0.2l0.1-0.2
	c0-0.2,0.1-0.4,0.2-0.7c0.1-0.4,0.1-0.8,0.1-1.1c0.1-1.1-0.1-2.2-0.4-3.2c-0.1-0.3-0.2-0.6-0.3-0.9c-0.1-0.3-0.3-0.6-0.5-0.9
	c-0.3-0.6-0.7-1.2-1.2-1.7c-1-1.1-2.2-1.9-3.5-2.5c-0.7-0.2-1.3-0.5-2-0.7s-1.3-0.3-1.9-0.4c-0.6-0.1-1.2-0.2-1.8-0.2
	c-0.9-0.1-1.8-0.1-2.7-0.1C34.1,7.2,33.7,7.2,33.7,7.2z M34.2,43.1c0,0-7.5,2.8-7,8.3c0,0-1.2-2.4,1-5.8c-0.9,0.8-1.6,1.8-2,2.9
	c0.2-1.7,0.9-3.3,1.9-4.7c-0.8,0.5-1.5,1.2-2,2c0,0-0.2-1.6,1.9-3.7s5.6-6,5.8-8.5c-0.3,2.8-1.5,5.5-3.4,7.5c0,0,2.8-1.9,3.7-3.7
	c-0.6,2-1.8,3.8-3.4,5.2c1.3-0.5,2.4-1.3,3.2-2.4c-0.5,1.3-1.3,2.4-2.4,3.2C31.4,43.4,33.9,42.9,34.2,43.1z M15.8,46.3
	c0,0-1.9,7.8,2.9,10.4c0,0-2.6-0.4-4.2-4.1c0.2,1.2,0.6,2.3,1.2,3.3c-1.3-1.2-2.3-2.6-2.9-4.2c0,1,0.2,1.9,0.5,2.8
	c0,0-1.5-0.7-1.9-3.7c-0.5-2.9-1.9-8-3.8-9.6c2.2,1.8,3.7,4.3,4.3,7.1c0,0,0-3.3-1-5.1c1.3,1.6,2.2,3.6,2.4,5.7
	c0.3-1.3,0.2-2.7-0.2-4c0.8,1.1,1.2,2.4,1.3,3.8C14.4,48.8,15.4,46.4,15.8,46.3z M25,42.8c0,0,0.5-0.6,1.2-1.4
	c0.4-0.4,0.8-0.9,1.3-1.4s1-1,1.5-1.5c0.5-0.5,0.9-1.1,1.3-1.7c0.2-0.3,0.4-0.5,0.5-0.8c0.2-0.3,0.3-0.5,0.5-0.8
	c0.2-0.4,0.4-0.8,0.6-1.2l0.2-0.5L32,34c0,0.2-0.1,0.3-0.2,0.6c-0.1,0.2-0.2,0.5-0.3,0.7c-0.2,0.6-0.5,1.2-0.9,1.7
	c-0.4,0.6-0.8,1.2-1.3,1.8c-0.5,0.5-1,1.1-1.5,1.5s-1,0.9-1.4,1.3C25.6,42.3,25.1,42.8,25,42.8z M24.9,40.8c0,0,0.4-0.5,1-1.2
	c0.3-0.3,0.7-0.8,1.1-1.2s0.9-0.9,1.3-1.4c0.4-0.5,0.8-0.9,1.1-1.4c0.2-0.2,0.3-0.5,0.5-0.7s0.3-0.4,0.4-0.7c0.2-0.3,0.4-0.7,0.5-1
	l0.1-0.4l-0.1,0.4c0,0.1-0.1,0.3-0.1,0.5c-0.1,0.2-0.1,0.4-0.2,0.6c-0.2,0.5-0.5,1-0.8,1.5c-0.3,0.5-0.7,1.1-1.1,1.5
	c-0.4,0.5-0.9,0.9-1.3,1.3s-0.9,0.8-1.2,1.1C25.4,40.4,24.9,40.8,24.9,40.8z M10.9,37.7c0,0,0.2-5.8,7.1-8.5s14.9-3.9,17.8-5.6
	s3.2-2.7,3.2-2.7s-2,1.9-7.1,3.4s-8.6,2-13.2,3.4c2.6-1.2,5.4-2.1,8.1-2.9c5.4-1.5,7.9-2.9,8.5-4.3c-2.8,1.9-6.1,3.2-9.4,3.7
	c-6.1,1.2-10.1,2.9-12.1,4.6c0,0,1.8-2.5,7-4.2s8.1-2.2,9.1-3.9c-2.1,1-4.3,1.8-6.5,2.2c-4.4,0.9-8.9,2.3-11.6,6.2
	S10.9,37.7,10.9,37.7z"/>
<path className="st2" d="M38.2,17.2c1-0.5,1.7-1.5,1.9-2.7c0.2-1.2-0.6-2.2-1.8-2.4c0.8-0.1,1.5,0.2,2,0.8C41.3,14,40.9,16.6,38.2,17.2z
	"/>
<path className="st2" d="M40.3,17.4c0.8-0.4,1.4-1.3,1.5-2.2c0.1-1-0.5-1.9-1.5-2c0,0,0,0,0,0c0.6-0.1,1.3,0.2,1.7,0.7
	C42.8,14.8,42.5,16.9,40.3,17.4z"/>
<path className="st2" d="M42,17.8c0.7-0.4,1.1-1,1.2-1.8c0.1-0.8-0.4-1.5-1.2-1.6c0.5-0.1,1,0.1,1.3,0.6c0.6,0.8,0.3,2-0.5,2.5
	C42.6,17.7,42.3,17.8,42,17.8z M13.7,23.7c0,0,4.8-4,5.9-5.3c0.8-0.9,1.5-1.9,2.1-2.9c-0.1,1.2-0.7,2.3-1.5,3.2c0,0,2.8-1.8,3.5-3.3
	c-0.5,1-1.1,2-1.8,2.9c1.6-0.8,3.1-1.8,4.5-2.9c-0.7,0.9-1.5,1.8-2.3,2.5c0,0,5.1-2,6.2-2.6c-1.3,1-2.8,1.9-4.2,2.8
	c0,0,5-0.7,6.7-1.8c-1.5,1.4-3.3,2.3-5.3,2.6c-2.8,0.6-5.5,1.6-8,3c1.1-0.9,2.2-1.7,3.4-2.4c-1,0.3-1.9,0.7-2.8,1.2
	c-0.7,0.5-1.4,1-2.1,1.6c0.7-0.8,1.4-1.6,2.2-2.4c0,0-1.6,0.8-3,1.7S13.7,23.7,13.7,23.7z M32.9,18c0,0,3.4-1.6,4-2.9
	s0.8-1.9,0.8-1.9S39.3,16.9,32.9,18z"/>
<path className="st0" d="M55.6,32.2c-0.4,0-0.8,0.1-1.1,0.1l-1.1-2.5c0.3-0.1,0.6-0.2,0.9-0.3c0.4,0,0.7,1,1,1.5
	C55.6,31.4,55.7,31.8,55.6,32.2z"/>
<path d="M68.9,55.6c-0.3-1.5-2-8.1-3.1-8.9c-0.3-0.2-0.7-0.4-1.1-0.4c-0.5,0-1,0.1-1.5,0.2h0c-0.4,0.1-1,0.2-1.6,0.3l-0.5,0.1
	c-2.2,0.4-4.5,0.7-6.8,0.7h-0.5l-0.8-1.7l-0.5-1.2l-0.2-0.4l-0.1-0.3L51.7,43l-0.1-0.2l-0.2-0.5l-0.8-1.7l-0.2-0.4L50.4,40l-0.6-1.3
	l-0.2-0.5l-0.2-0.4c0.7-0.3,1.6-0.6,2.7-1l0.4-0.1c0.6-0.2,1.5-0.5,2.2-0.6c0.3,0.2,0.7,0.3,1,0.3c0.4,0,0.7-0.1,1-0.3
	c1-0.4,1.5-1.6,1-2.6c0,0,0-0.1,0-0.1c-0.2-0.5-1.9-3.7-1.9-3.8c-0.3-0.5-0.8-0.8-1.3-0.9c-0.2,0-0.4,0-0.5,0.1l-1.4,0.5l-0.2,0.1
	l0.7,0.5l1.1,2.8c-0.8,0.2-1.9,0.5-2.7,0.8L51,33.7c-2.4,0.8-4.7,1.7-5.5,3c-0.4,0.7-3.1,5.4-5.3,9.3H40c-0.3,0-0.6,0.2-0.8,0.5
	l-1.2,2.4c-0.1,0.3-0.1,0.6,0,0.9l-1.8,3.1c-0.5,0.8-0.2,1.8,0.6,2.3c0.3,0.1,0.5,0.2,0.8,0.2c0.2,0,0.4,0,0.6-0.1
	c0.1,0,0.1-0.1,0.2-0.1c2.5,0.3,14,1.6,15,1.7h0.6c1,2.6,3,4.7,5.5,5.8c1.3,0.6,2.8,0.9,4.2,0.9c1.5,0,2.9-0.3,4.3-0.8
	c0.5-0.2,1-0.5,1.3-0.9C69.9,61.1,69.9,60.4,68.9,55.6L68.9,55.6z M66.2,59.9c-0.8,0.2-1.6,0.3-2.4,0.3c-0.9,0-1.8-0.2-2.7-0.5
	c-1.4-0.6-2.6-1.7-3.3-3c1.9-0.2,3.7-0.5,4.7-0.7l2.8-0.6c0.1,0.3,0.1,0.6,0.2,0.9C65.8,57.1,66.1,58.8,66.2,59.9z M64.5,52
	l-2.6,0.6c-1.8,0.3-3.7,0.6-5.5,0.7l-1-2.3c2.1-0.1,4.2-0.4,6.3-0.7h0.1l0.4-0.1c0.6-0.1,1.1-0.2,1.6-0.3
	C63.9,50.3,64.2,51.1,64.5,52z M45.6,51.6c0.4-0.5,0.5-1.2,0.3-1.8c-0.2-0.7-0.8-1.4-1.5-1.7l-1.2-0.7l0.7-1.2
	c1.5,1.6,4.2,4,7.1,4.5l0.5,0.1l1.1,2.4l-7.9-0.9C45.1,52.2,45.4,51.9,45.6,51.6z M45.7,43.2l1.3-2.3l2.1,4.6l0.1,0.3l0.4,1
	C48.1,45.7,46.8,44.5,45.7,43.2L45.7,43.2z M41.9,52.1l-1.2-0.1l0.2-0.3l0.1-0.2L41.9,52.1z M54.1,30l0.2-0.1h0.1
	c0.2,0,0.3,0.1,0.4,0.2l1.3,2.5c-0.2-0.1-0.5-0.2-0.7-0.2h-0.2L54.1,30z"/>
<path className="st0" d="M44,48.8c-0.3-0.2-0.8-0.4-1.3-0.7l-1.5,2.8l1.5,0.8c0.3,0.2,0.7,0.2,1.1,0.2c0.5,0,0.9-0.3,1.1-0.7
	c0.3-0.3,0.4-0.8,0.3-1.2C45,49.4,44.6,49,44,48.8z"/>
<path className="st0" d="M68,55.8c-0.5-2.7-2.2-7.9-2.8-8.4c-0.2-0.1-0.3-0.2-0.5-0.2c-0.4,0-0.9,0.1-1.3,0.2c-0.5,0.1-1.1,0.2-1.7,0.3
	l-0.5,0.1c-2.3,0.4-4.7,0.7-7,0.7h-1.1c-1-2.2-2.2-4.8-3.3-7.4L49.7,41l-0.8-1.8l-0.2-0.4l-0.6-1.3c1.2-0.6,2.4-1.1,3.6-1.5l0.4-0.1
	c1.2-0.4,3.3-0.9,3.4-0.9c0.4-0.1,0.6-0.5,0.5-0.9c-0.1-0.3-0.4-0.6-0.7-0.6h-0.2c-0.1,0-2.3,0.5-3.5,1l-0.3,0.1
	c-2.2,0.7-4.3,1.5-5,2.6c-0.4,0.8-3.2,5.7-5.6,9.9l-0.5-0.2h-0.1c-0.1,0-0.1,0-0.1,0.1l-1.2,2.3c0,0.1,0,0.2,0.1,0.2l0.1,0.1
	l0.2,0.2l-2,3.7c-0.2,0.4,0,0.8,0.4,1c0.2,0.1,0.4,0.1,0.5,0c0.1,0,0.2-0.1,0.3-0.2c2,0.2,14.3,1.7,15.3,1.8h1.1
	c1.1,2.4,2.1,4.4,5.3,5.9c1.2,0.5,2.5,0.8,3.8,0.8c1.3,0,2.7-0.2,3.9-0.7c0.3-0.1,0.6-0.3,0.8-0.5C68.9,60.9,68.9,60.4,68,55.8
	L68,55.8z M54.2,50.1c2.4-0.1,4.8-0.3,7.2-0.8l0.5-0.1c0.6-0.1,1.3-0.2,1.8-0.3l0.6-0.2c0.5,1.3,1,2.6,1.4,4l-3.7,0.8
	c-2.1,0.4-4.2,0.6-6.3,0.8l-1.9-4.2L54.2,50.1L54.2,50.1z M47.1,38.8c0.9,2,1.9,4.2,2.8,6.3l1.5,3.4c-3.2-0.6-6.4-4.4-7-5.2
	L47.1,38.8z M53.8,54.4c-0.9-0.1-11.5-1.3-14.6-1.7l1.3-2.4l0.3,0.2l1.5-2.8L42,47.7l1.7-3c1.2,1.4,4.2,4.7,7.5,5.2
	c0.3,0.1,0.6,0.1,1,0.1l2,4.4L53.8,54.4L53.8,54.4z M63.8,61.1c-1.1,0-2.1-0.2-3.1-0.6c-2-0.9-3.6-2.7-4.3-4.8c2-0.2,4-0.4,6-0.8
	l3.7-0.8c0.2,0.6,0.3,1.2,0.4,1.9c0.2,1.2,0.7,3.7,0.7,4.5C66.2,60.9,65,61.1,63.8,61.1L63.8,61.1z"/>
<path d="M44.1,50.4l0-0.3l-0.3,0l0-0.3l-0.3,0l0,0.3l-0.3,0l0,0.3l0.3,0l0,0.3l0.3,0l0-0.3C43.8,50.4,44.1,50.4,44.1,50.4z"/>
<path d="M43.7,51.5c-0.6,0-1.2-0.5-1.2-1.1c0-0.5,0.3-0.9,0.7-1.1c0.6-0.2,1.3,0.1,1.5,0.7c0.2,0.6-0.1,1.3-0.7,1.5
	C43.9,51.4,43.8,51.5,43.7,51.5z M43.7,49.6c-0.1,0-0.2,0-0.2,0c-0.3,0.1-0.5,0.5-0.4,0.8c0.1,0.3,0.5,0.5,0.8,0.4
	c0.3-0.2,0.4-0.6,0.2-0.9C44,49.8,43.8,49.7,43.7,49.6z"/>
<path className="st3" d="M60.6,47.6c-1.4,0-2.8-1.3-4-2.4c-0.5-0.5-1-0.9-1.6-1.3c-0.6-0.2-1.2-0.3-1.8-0.3c-0.5,0-0.9,0-1.4,0.1
	l-0.3,0.1l-2.2-4.9l0.2-0.2c1.6-0.8,3.3-1.5,5-2.1c1-0.5,1.9-1.2,2.7-1.9c0.6-0.6,1.4-0.9,2.2-0.9c0.2,0,0.4,0,0.6,0.1
	c0.5,0.2,1.5,1.2,3.9,7.6c1.4,3.8,1.5,4.5,1,5c-0.8,0.6-1.7,0.9-2.6,0.9c-0.4,0.1-0.9,0.1-1.4,0.2C60.9,47.7,60.7,47.7,60.6,47.6
	L60.6,47.6z"/>
<path d="M59.5,34.2c0.1,0,0.3,0,0.4,0.1c0.6,0.2,1.7,1.9,3.7,7.4c1.3,3.4,1.4,4.2,1.1,4.5c-0.6,0.6-1.7,0.6-3.8,1
	c-0.1,0-0.2,0-0.3,0c-2,0-4.1-3.1-5.4-3.6c-0.6-0.2-1.3-0.4-1.9-0.3c-0.5,0-1,0-1.4,0.1l-2-4.4c0.2-0.2,3.8-1.6,4.8-2
	c1-0.5,2-1.2,2.8-2C58,34.5,58.8,34.2,59.5,34.2 M59.5,33.4c-0.9,0-1.8,0.4-2.5,1c-0.8,0.7-1.6,1.3-2.5,1.8
	c-1.8,0.6-3.5,1.3-5.1,2.2l-0.4,0.4l0.2,0.5l2,4.4l0.3,0.6l0.6-0.1c0.4-0.1,0.9-0.1,1.3-0.1c0.5,0,1.1,0.1,1.6,0.3
	c0.5,0.3,1,0.8,1.5,1.2c1.3,1.2,2.7,2.5,4.2,2.5c0.2,0,0.3,0,0.5,0l1.3-0.3c1,0,2-0.4,2.8-1c0.7-0.7,0.5-1.5-0.9-5.4
	c-2.7-7.3-3.7-7.7-4.1-7.8C60,33.4,59.8,33.4,59.5,33.4L59.5,33.4z"/>
<path className="st3" d="M45,43.2l0.1-0.2c0.5-1.1,1.1-2.1,1.7-3.1c1-0.6,2-1,3-1.3l1-0.4c0.1,0,0.2-0.1,0.3-0.1
	c0.7,0.1,1.2,0.5,1.6,1.1c0.6,0.6,1,1.5,1.1,2.3v0.3c0,0.9-0.5,1.7-1.4,1.9l-5.9,1.2L45,43.2z"/>
<path d="M51.1,38.5c0.8,0,2.4,2.2,2.3,3s-0.1,1.5-1.2,1.9l-5.6,1.1l-1.2-1.3c0,0,1.4-2.8,1.7-3s3.1-1.3,3.8-1.7
	C51,38.5,51.1,38.5,51.1,38.5 M51.1,37.7c-0.2,0-0.3,0-0.5,0.1l-1,0.4c-2.5,1-2.9,1.2-3.1,1.4c-0.7,1-1.3,2-1.8,3.1l-0.3,0.5
	l0.4,0.4L46,45l0.3,0.3l0.4-0.1l5.6-1.1h0.1c1-0.3,1.7-1.2,1.7-2.2v-0.3c0.2-1-0.9-2.4-1.1-2.7C52.6,38.2,51.9,37.8,51.1,37.7
	L51.1,37.7z"/>
<path className="st3" d="M50.8,43.5c1-0.2,2.1-0.3,3.2-0.2c1.2,0.1,1.2-0.9,1.1-2.5c-0.1-1.2-0.7-2.2-1.6-2.9c-0.3-0.1-0.6-0.1-0.8-0.1
	c-0.1,0.1-3.8,1.5-3.5,1.6S50.8,43.5,50.8,43.5z"/>
<path d="M52.6,43.8c0-0.5-0.5-5.3-0.1-6.3l0.4,0.2c-0.3,0.8,0,4.7,0.2,6.1L52.6,43.8z M60.6,47.8c-1.3,0-2.9-1-4.5-3
	c-1.8-1.9-2.4-4.7-1.7-7.2c0.4-1.2,2.7-3,2.8-3.1l0.3,0.4c-1,0.8-1.9,1.8-2.6,2.9c-0.7,2.4,0,4.9,1.6,6.7c1.8,2.2,3.5,3.1,4.8,2.7
	l0.2,0.6C61.1,47.7,60.8,47.8,60.6,47.8z"/>
<path d="M58.9,34.9c-0.6,0.5-1.2,1.1-1.7,1.7c-0.6,0.8-1.8,2.6,0.1,5.8s3.4,3.8,4.5,3.8s2-0.1,2.2-0.8c0.2-0.7-0.9-3.9-2-6.5
	S60,34.5,58.9,34.9z"/>
<circle cx="50.3" cy="41.1" r="1.2"/>
<circle cx="47.6" cy="42.1" r="0.9"/>
<path className="st3" d="M33,56.5h-0.3c-1.1-0.2-2.1-0.8-2.8-1.7c-1-1.4-1.4-3.2-1-4.8c0.6-3.3,6.8-6.1,7.1-6.2l7.7-3.3l-3.2,5.7h-0.2
	c-4.1,0.6-8.6,1.8-9.2,3.8s1.2,3.3,2.2,4l0.3,0.2c0.5,0.4,0.8,1,0.6,1.7C34.2,56.3,33.6,56.6,33,56.5L33,56.5z"/>
<path d="M42.9,41.3l-2.5,4.5c-0.2,0-8.6,1-9.5,4c-0.7,2.5,1.8,4,2.6,4.7s0.8,1.6-0.4,1.6h-0.3c-2.1-0.2-4-2.9-3.4-6.1
	s6.8-5.8,6.8-5.8L42.9,41.3 M44.7,39.6l-2.2,0.9l-6.7,2.8c-0.7,0.3-6.7,3-7.4,6.5c-0.4,1.8,0,3.7,1.1,5.2c0.7,1,1.8,1.7,3,1.8H33
	c0.7,0.1,1.4-0.3,1.7-1c0.2-0.8-0.1-1.6-0.8-2l-0.3-0.2c-1.2-0.9-2.5-2-2-3.6c0.5-1.6,4-2.8,8.8-3.5h0.1l0.4-0.1l0.2-0.3l2.5-4.5
	L44.7,39.6L44.7,39.6z"/>
</svg>
