<?xml version="1.0" encoding="utf-8"?>
<!-- Generator: Adobe Illustrator 16.0.4, SVG Export Plug-In . SVG Version: 6.00 Build 0)  -->
<!DOCTYPE svg PUBLIC "-//W3C//DTD SVG 1.1//EN" "http://www.w3.org/Graphics/SVG/1.1/DTD/svg11.dtd">
<svg version="1.1" id="Layer_1" xmlns="http://www.w3.org/2000/svg" xmlns:xlink="http://www.w3.org/1999/xlink" x="0px" y="0px"
	 width="72px" height="72px" viewBox="0 0 72 72" enable-background="new 0 0 72 72" xml:space="preserve">
<g>
	<path id="CIRCLE_6_" d="M35.931,0.209c-19.729,0-35.722,15.993-35.722,35.722c0,19.728,15.993,35.721,35.722,35.721
		S71.652,55.66,71.652,35.931S55.659,0.209,35.931,0.209z M36.049,66.27c-16.756,0-30.34-13.584-30.34-30.338
		c0-16.756,13.584-30.34,30.34-30.34c16.758,0,30.34,13.584,30.34,30.34C66.389,52.686,52.807,66.27,36.049,66.27z"/>
	<path d="M52.727,17.064c-3.59-5.06-12.158-7.235-21.379-6.582C27.375,10.781,20.33,13.2,17.91,18.397
		c-2.965,5.549,0.135,11.479,2.911,16.077l-1.743,3.848l2.641,3.51c3.481-1.742,4.434-0.111,4.91,3.289v16.253h2.653V45.121h0.609
		v16.253h2.415V45.121h0.613v16.253H35.4V45.121h0.614v16.253h2.446V45.121h0.613v16.253h2.446V45.121h0.613v16.253h2.854
		c0,0,0-11.354-0.004-16.258c0.412-5.57,4.688-3.257,4.688-3.257s0.911-1.09,2.771-3.541c-0.6-2.458-1.211-3.844-1.211-3.844
		c1.687-3.184,3.481-5.469,3.838-9.386C55.666,20.846,54.032,18.804,52.727,17.064z M27.812,32.337
		c-1.334-0.19-3.101-0.802-3.782-1.944c-0.666-1.184-0.748-5.414,0.341-6.176c2.938,4.991,5.318,5.14,7.848,6.447l0.271,1.005
		C31.048,32.269,29.96,32.882,27.812,32.337z M33.185,38.393c-0.217-1.442,0.924-3.062,1.51-4.19l0.025,4.83
		C34.203,38.92,33.129,39.287,33.185,38.393z M37.859,39.031h-1.098v-4.83C37.779,35.669,38.869,37.479,37.859,39.031z
		 M47.042,30.394c-0.679,1.142-2.448,1.754-3.778,1.944c-2.152,0.544-3.238-0.068-4.681-0.667l0.272-1.005
		c2.528-1.307,4.91-1.456,7.849-6.447C47.79,24.979,47.708,29.209,47.042,30.394z"/>
</g>
</svg>
